<?xml version="1.0" encoding="UTF-8"?>
<!DOCTYPE svg PUBLIC "-//W3C//DTD SVG 1.1//EN" "http://www.w3.org/Graphics/SVG/1.1/DTD/svg11.dtd">
<svg xmlns="http://www.w3.org/2000/svg" xmlns:xlink="http://www.w3.org/1999/xlink">
    <defs>
        <symbol xmlns="http://www.w3.org/2000/svg" id="shred" viewBox="0 0 1920 187.1">
            <g style="enable-background:new 0 0 1920 187.1;">
                <path d="M1920,65.1c0,40.7,0,81.3,0,122c-640,0-1280,0-1920,0c0-37.3,0-74.7,0-112c8-1.8,15.8-1,23.7,0.5c3.7,0.7,7.5,1.1,11.4,0     c4.1-1.2,8.4-1.8,12.6-2.7c1.1-0.2,2.4-0.2,3.3-0.8c5.2-3.5,11.3-3.9,17.1-5c3-0.6,5.8-1.3,8.5-2.6c6.1-3.1,12.5-4.4,19.2-4.6     c3.1-0.1,6.3-0.7,9.1-2c2.6-1.2,5.2-2,8.1-2.3c1.3-0.1,2.7-0.3,3.9-0.7c4.2-1.7,8.7-2,13.2-2.6c3.5-0.5,7-0.9,10.3-1.8     c5.6-1.6,11.1-3.4,16.5-5.4c3.3-1.2,7.4-0.9,9.5-4.6c0.3-0.4,1.2-0.5,1.8-0.7c5.5-1.9,10.9-3.9,16.4-5.7c1.7-0.6,3.6-0.7,5.4-0.8     c4.3-0.1,8.7-0.2,13-0.1c5.5,0.2,10.8,0.4,16.2,2.2c4.1,1.4,8.7,2.1,13.3,0.9c4.5-1.1,9.3,0.2,13.7-1.8c0.3-0.1,0.6,0.1,1,0.1     c5,0.6,9.8-0.3,14.7-1.8c4.3-1.3,8.7-2.1,13.3-0.9c1.4,0.4,3,0.5,4.5,0.4c4.1-0.3,8.2-1,12.4-1.2c6.8-0.3,13.5-1.1,20.1-2.8     c1.4-0.4,3-0.4,4.5-0.1c4.1,0.7,8,0.2,11.8-1c6.4-2,12.9-2.9,19.7-2.4c1.3,0.1,2.8,0.2,3.9-0.3c5.2-2.7,10.8-2.8,16.4-3.6     c3.4-0.5,6.5,0.3,9.8,1c11.4,2.4,22.5,1.8,32.1-5.9c1.2-0.9,2.4-1.8,3.7-2.6c0.7-0.5,1.4-1.1,2.2-1.1c4,0,8-1.1,11.9,0.5     c3,1.3,6.1,1.2,9.3,0.3c1.1-0.3,2.2-0.3,3.3-0.2c6,0.6,12.1,0.6,17.7-1.7c3.5-1.4,6.9-1.9,10.5-2.5c3.9-0.7,8.1-1.5,11.3-3.6     c5.1-3.4,10.5-3.5,16.1-3.3c5.8,0.3,11.6,1,17.4,1c5.3,0,10.6-0.7,15.9-1.1c3.3-0.2,6.6-0.5,10-0.7c7.5-0.4,14.9-0.7,22.4-1     c0.9,0,2.5,0.2,2.7,0.7c1.2,3.1,3.7,2.3,5.9,2.2c2.7-0.1,5.3-0.4,7.9-0.9c7.1-1.4,13.8-0.2,20.5,1.9c2.2,0.7,4.5,1.1,6.8,1.1     c6.7,0,13.3-0.3,20-0.3c4.6,0,9.3,0.4,13.9,0.4c3.8-0.1,7.6-0.8,11.4-0.8c4.9-0.1,9.9-1.6,14.7,0.9c3.5,1.8,7.2,1.8,11.2,0.9     c6.9-1.6,13.8-2.2,20.3,1.5c0.6,0.3,1.3,0.4,1.9,0.5c4.5,0.3,8.9,0.6,13.4,0.9c1,0.1,2.1,0.2,3-0.2c6.7-2.4,12.9-0.7,18.7,2.5     c5,2.8,9.9,2.8,14.7,0.2c3.4-1.9,6.6-1.9,10.1-1c1.9,0.5,3.9,0.8,5.9,1.1c3.5,0.4,6.9,0.8,9.9,3c1.4,1,3,1.2,4.7,0.8     c1.8-0.4,3.8-0.8,5.4-0.3c3.3,1,6.6,1,9.9,0.6c3.5-0.4,6.5,0.5,9.4,2.3c9.7,6.3,20.2,10.8,31.5,13.3c2.3,0.5,4.7,1.1,6.5,2.4     c1.6,1.1,3,1.3,4.6,1.2c7.3-0.1,14.7-0.2,22-0.2c2.5,0,5,0.4,7.4,0.9c9.7,2,19.4,3.1,29.1,0.1c0.8-0.2,1.9-0.6,2.4-0.3     c2,1.5,4.1,0.4,6.1,0.7c4,0.6,7.8,0.3,11.6-1.1c0.7-0.3,1.6,0.2,2.5,0.3c1.8,0.2,3.7,0.2,5.5,0.6c3.1,0.7,6.3,1,9,2.4     c3.7,1.9,7.4,2.6,11.5,2.5c2.6,0,5.3,0.5,7.9,0.8c2.1,0.3,4.2,0.7,6.4,1c2,0.3,3.9,0.7,5.9,0.8c7.7,0.7,15.3,4.9,23.3,1.2     c0.1-0.1,0.3,0,0.5,0c3.1-1.1,6.3,0.1,9.4,0.2c5.2,0.2,10.6-1,15.7,1.3c0.4,0.2,1,0.1,1.4,0.1c4-0.2,8-0.3,11.9-0.6     c4.6-0.4,9.2-0.7,13.1-3.9c1.1-0.9,2.7-1.1,4.2-1.3c3.8-0.6,7.6-1.1,11.4-1.5c2.6-0.3,5.1-0.4,7.8,0.9c2.7,1.3,6,2.2,8.5-1.1     c0.9-1.2,2.2-1.3,3.5-0.2c2.4,2.2,5.2,1.8,7.8,0.6c1.8-0.9,3.4-1.2,5.3-0.8c0.9,0.2,2.2,0.3,2.9-0.2c2.4-1.4,4.7-1,7.2-0.7     c1,0.1,2-0.1,3-0.3c3.8-0.6,7.5-1.7,11.3-1.8c7.1-0.1,13.7-2.4,20.2-4.7c8.6-2.9,16.9-5.8,26.2-5.1c1.3,0.1,2.6-0.4,3.9-0.6     c2.8-0.6,5.6-1.9,8.3-1.7c5.2,0.3,10.2,0.1,15.4-0.3c8.3-0.7,16.4,1.8,24.7,2.6c2.9,0.3,5.6,0.7,8.2-0.7c3.6-2,7.7-1.6,11.2-0.9     c3.1,0.6,6,0.9,9.2,1c6.8,0.1,13.1-1.3,19.4-3.6c1.8-0.7,4.1-0.9,5.9-0.4c4.2,1.4,8.4,1.5,12.7,2.1c6.7,1.1,13.2,0.8,19.7-1     c3.3-0.9,6.9-1.1,10.3-1.7c1.5-0.2,3.3-0.1,4.3-1c2-1.8,4.2-1.6,6.5-1.8c2.5-0.2,4.9-0.6,7.4-1c2.1-0.3,4.2-0.7,6.4-1.1     c8-1.4,16.1-2.6,24.3-2.1c0.6,0,1.3-0.4,1.9-0.4c3-0.2,6-0.4,8.9-0.5c2.7-0.1,5.6,0.6,7.9-0.3c3.6-1.4,7.1-1.3,10.8-0.8     c2.9,0.5,5.9,0.9,8.8,1.2c2.6,0.2,5.3,0.1,7.9,0.2c3.7,0.1,7.4-0.3,10.9,0.5c3.4,0.8,6.8,1.4,10.3,1.4c3.6,0,6.8,1.1,10,2.7     c7,3.5,14.2,5.4,22.1,3.2c1.2-0.3,2.6-0.1,3.9-0.1c5.3,0.4,10.6,1.1,15.9,1.2c6.7,0.1,13.3-0.1,20-0.4c1.4,0,2.8-0.7,4.3-1     c4.2-0.7,8.7-2.2,12.7-1.7c5.8,0.8,12,0.7,17.5,3.5c0.7,0.3,1.6,0.4,2.4,0.4c4.6,0,9.3-0.7,13.8,1c0.9,0.3,2,0,3-0.1     c1,0,2-0.2,2.9-0.1c6.6,0.7,13.2,1.4,19.8,2.2c1.2,0.1,2.3,0.2,3.4,0.5c5.4,1.6,10.8,3.3,16.1,5.1c9.4,3.1,18.6,7.3,28.8,7.2     c0.3,0,0.7,0.1,1,0.2c9,1.7,17.8,4.1,26.9,5.2c2.8,0.3,5.7,0.8,8.2,1.8c2.6,1.1,5.2,1.1,7.8,0.8c3.3-0.3,6.7-0.5,9.9-1.2     c2.9-0.6,5.2,0.2,7.4,1.8c5.4,3.9,11.6,5.6,18.2,5.7c5.8,0.1,11.7,0.2,17.5,0.8c2.6,0.2,5,1.5,7.5,2.4c1.5,0.5,3,1.5,4.6,1.7     c5.2,0.8,10.5,1.4,15.8,2.1c2.6,0.3,5.3,0.8,7.9,0.9c2.9,0.1,5.6,0.7,8.1,2.2c7.2,4.3,15.4,4.9,23.4,6c0.8,0.1,1.7,0,2.5-0.3     c7.6-2.8,15.2-5.7,22.8-8.4c2.6-1,5.4-1.7,8.1-2.4c1.3-0.4,2.7-0.4,3.9-0.9c2.3-1,4.5-0.8,6.8,0c3.4,1.2,6.9,2.6,10.4,3.1     c9,1.5,18.2,1.9,27.3,0.9c6-0.7,11.6,0,16.8,3.3c2.7,1.7,5.7,2.3,8.6,1.6C1907.4,64.6,1913.7,65,1920,65.1z"/>
            </g>
        </symbol>
        <symbol xmlns="http://www.w3.org/2000/svg" id="logo-hepl" viewBox="0 0 147.94 172.91">
            <title lang="en-fr">
                Logo of "la haute école de la province de Liège"
            </title>
            <path style="fill: #faa61a;" class="cls-1" d="m115,33.21v22.01c0,1.84,3.06,2.51,5.76,2.96v-24.89c-.77.53-1.75.86-2.82.86-1.12,0-2.15-.36-2.93-.94Zm2.94-.9c1.87,0,3.38-1.64,3.38-3.67s-1.52-5.97-3.38-5.97-3.38,3.94-3.38,5.97,1.52,3.67,3.38,3.67Zm-12.87,41.66v11.08h10.73c5.46,0,11.35-.89,15.61-2.05v-13.5h2.68c-2.01-5.48-6.73-9.64-12.54-10.81h-6.76c-5.73,1.16-10.38,5.19-12.43,10.59h17.52s-14.24,1.09-14.81,4.69Zm37.87,14.66h-49.8v10.21h41.59c9.82,0,8.21-10.21,8.21-10.21Zm5,12.74h-62.35c0,3.22,3.39,4.55,3.39,4.55v45.73s.49,13.01-8.5,21.26c6.46-2.13,12.85-4.83,18.21-7.73v-47.02c0-4.03,3.24-7.3,7.25-7.3s7.26,3.27,7.26,7.3v37.4c3.7-2.97,7.06-6.12,10.12-9.41v-27.99c0-4.03,3.25-7.3,7.26-7.3s7.26,3.27,7.26,7.3v7.81c4.57-8.29,7.81-16.71,10.11-24.61Z"/>
            <path style="fill: #d1223e;" d="m0,0v69.11c0,22.61,11.34,83.07,73.7,103.8-9.24-8.3-8.5-21.26-8.5-21.26v-30.61c-11.79,7-11.62,28.73-11.62,28.73-25.65-48.66,12.74-58.9,26.1-66.68,13.89-8.1,9.39-20.77,9.39-20.77.02,9.73-7.17,15.33-21.26,16.28-14.41.97-19.45,12.21-19.45,12.21,0,0-10.46-5.83-8.89-16.94.79.39,16.09,6.05,20.48-9.1,0,0-9.52-8.18-16.1-6.95-6.58,1.23-6.96,6.51-6.96,6.51,0,0-13.94-5.16-4.08-15.08-4.33,2.97-8.41.77-8.41.77,0,0,4.07-6.62,22.91-17.1-.17-.32-.25-.78-.18-1.17,0,0,1.3-10.7,26.29-14.94,21.06-3.57,44.06,5.67,47.9-16.82H0Zm51.01,36.27s7.79,1.55,11.19-.66c3.4-2.21-4.08-3.29-7.24-3.65l-3.95,4.31Z"/>
        </symbol>
        <symbol xmlns="http://www.w3.org/2000/svg" id="logo-hec" viewBox="0 0 187.59 216.61">
            <title lang="en-fr">
                Logo of "Haute École de Commerce" of Liège"
            </title>
            <polygon style="fill: #f8aa00;" points="46.9 81.23 0 108.31 0 54.15 46.9 81.23"/>
            <polygon style="fill: #ffd000;" points="0 108.31 46.9 81.23 46.9 135.38 0 108.31"/>
            <polygon style="fill: #f07f3c;" points="46.9 135.38 0 162.46 0 108.31 46.9 135.38"/>
            <polygon style="fill: #e62d31;" points="0 162.46 46.9 135.38 46.9 189.54 0 162.46"/>
            <polygon style="fill: #c6c1b4;" points="46.9 27.08 0 54.15 0 0 46.9 27.08"/>
            <polygon style="fill: #8c8b82;" points="0 54.15 46.9 27.08 46.9 81.23 0 54.15"/>
            <polygon style="fill: #b9cd76;" points="93.8 54.15 46.9 27.08 46.9 81.23 93.8 54.15"/>
            <polygon style="fill: #7db928;" points="46.9 81.23 93.8 108.31 93.8 54.15 46.9 81.23"/>
            <polygon style="fill: #289c38;" points="93.8 108.31 46.9 81.23 46.9 135.38 93.8 108.31"/>
            <polygon style="fill: #00843b;" points="46.9 135.38 93.8 162.46 93.8 108.31 46.9 135.38"/>
            <polygon style="fill: #005da9;" points="46.9 189.54 93.8 216.61 93.8 162.46 46.9 189.54"/>
            <polygon style="fill: #1fbadb;" points="93.8 162.46 46.9 135.38 46.9 189.54 93.8 162.46"/>
            <polygon style="fill: #a8589e;" points="93.8 162.46 140.7 189.54 140.7 135.38 93.8 162.46"/>
            <polygon style="fill: #5b257d;" points="140.7 189.54 93.8 162.46 93.8 216.61 140.7 189.54"/>
            <polygon style="fill: #00707e;" points="187.59 54.15 140.7 81.23 140.7 27.08 187.59 54.15"/>
            <polygon style="fill: #5fa4b0;" points="140.7 27.08 187.59 0 187.59 54.15 140.7 27.08"/>
            <polygon style="fill: #5c57a2;" points="187.59 162.46 140.7 189.54 140.7 135.38 187.59 162.46"/>
            <polygon style="fill: #8da6d6;" points="140.7 135.38 187.59 108.31 187.59 162.46 140.7 135.38"/>
        </symbol>
        <symbol id="logo-liege1" xmlns="http://www.w3.org/2000/svg" viewBox="0 0 113.17 77.62">
            <title lang="en-fr">Logo of "Athénée Royal Liège 1, Charles Rogier"</title>
            <path style="fill: #91b953;" d="m112.3,42.14c-2.09,9.75-4.79,18.62-8.62,24.8-5.24,8.47-9.34,10.68-9.34,10.68h-16.97c16.91-15.59,19.99-35.75,19.36-45.21s-6.52-14.18-13.42-14.18-14.07,4.09-14.07,4.09V3.92c16.15-6.59,34.87-1.91,38.97,6.75,0,0,7.43,12.25,4.09,31.47Z"/>
            <path style="fill: #265732;" d="m54.07,17.31c6.95,0,15.17,5.01,15.17,5.01V3.91C60.25-4.11,34.56.57,24,14.5c-9.72,12.82-7.56,20.96-7.56,20.96C5.54,33.49.06,18.43.06,18.43c-1.21,23.78,16.12,25.42,16.12,25.42.51,13.55,12.68,31.73,13.06,32.3-6.13-15.51-3.22-28.66-3.22-28.66,2.28,5.71,5.51,11.65,9.21,18.44,4.76,8.74,8.91,11.69,8.91,11.69h16.97c-16.91-15.59-19.99-35.76-19.36-45.21.64-9.46,5.42-15.1,12.32-15.1Zm-23.74,12.78c-2.09,0-3.79-1.69-3.79-3.79s1.7-3.79,3.79-3.79,3.79,1.7,3.79,3.79-1.7,3.79-3.79,3.79Z"/>
        </symbol>
        <symbol id="logo-saint-louis" xmlns="http://www.w3.org/2000/svg" viewBox="0 0 87 85.66">
            <title lang="en-fr">Logo of Saint-Louis</title>
            <g style="fill: #f6005c">
                <path d="m67.53,60.04c0-4.26,3.58-7.74,7.97-7.74,4.31,0,7.9,3.63,7.92,8.03.02,4.31-3.64,7.87-8.09,7.83-3.87-.04-8.19-3.58-7.8-8.11Z"/>
                <path d="m42.97,63.43c-.02,4.13-2.98,7.13-6.98,7.08-4.16-.05-7.42-3.25-7.35-7.23.06-3.85,3.55-7.16,7.55-7.16,3.84,0,6.8,3.19,6.78,7.31Z"/>
                <path d="m13.7,32.15c.04,3.26-3.16,6.33-6.63,6.37-3.62.04-6.58-2.94-6.64-6.69-.06-3.41,2.99-6.35,6.58-6.35,3.66,0,6.64,2.98,6.68,6.68Z"/>
                <path d="m15.91,74.59c-3.29-.04-6.19-3.01-6.09-6.22.1-3.05,3.07-5.77,6.22-5.69,3.18.08,5.87,2.84,5.88,6.01,0,3.01-2.99,5.94-6.02,5.9Z"/>
                <path d="m78.48,30.58c-3.25-.05-5.4-2.2-5.37-5.37.03-2.88,2.55-5.32,5.46-5.29,3.13.03,5.5,2.6,5.42,5.86-.08,3.01-2.18,4.85-5.51,4.8Z"/>
                <path d="m42.96,18.46c.03,2.76-1.91,4.72-4.73,4.79-2.68.06-5.08-2.16-5.09-4.73-.01-2.63,2.22-4.86,4.92-4.92,2.75-.06,4.87,2.04,4.9,4.86Z"/>
            </g>
            <g style="fill: #fd5e00">
                <path d="m25.38,16.92c-.03,4.17-3.86,7.78-8.24,7.78-4.01,0-7.81-3.93-7.8-8.05.01-4.24,3.99-8.09,8.27-8,4.19.09,7.81,3.93,7.78,8.27Z"/>
                <path d="m25.36,55.64c-3.78.02-7.31-3.37-7.32-7.01,0-4.15,3.14-7.29,7.29-7.29,4.66,0,7.05,4.23,7.19,7.37.16,3.58-3.42,6.91-7.16,6.92Z"/>
                <path d="m44.44,53.94c-3.6-.03-6.53-3-6.51-6.59.02-3.63,3.02-6.59,6.61-6.51,3.68.08,6.7,3.1,6.7,6.72,0,3.36-3.25,6.41-6.79,6.38Z"/>
                <path d="m29.44,83.85c-3.3-.02-5.91-2.66-5.86-5.9.05-3.23,2.9-6.02,6.1-5.98,3.05.04,5.75,2.95,5.7,6.15-.05,3.41-2.49,5.76-5.94,5.73Z"/>
                <path d="m60.92,19.47c0,2.65-2.26,4.87-4.97,4.86-2.64-.01-4.6-2.12-4.61-4.95,0-2.68,1.97-4.6,4.7-4.58,2.79.02,4.87,2.01,4.88,4.67Z"/>
                <path d="m64.18,69.55c3.09.04,5.32,2.39,5.29,5.56-.03,3.06-2.32,5.22-5.44,5.13-3-.09-5.42-2.47-5.41-5.33.01-2.93,2.58-5.41,5.56-5.37Z"/>
            </g>
            <g style="fill: #8fc000">
                <path d="m18.99,31.96c.05-4.08,3.01-6.9,7.17-6.82,3.68.07,6.79,3.34,6.73,7.07-.06,3.91-3.34,6.95-7.42,6.88-3.83-.06-6.53-3.03-6.48-7.13Z"/>
                <path d="m87,41.51c.03,3.08-2.91,6.1-5.89,6.05-3.01-.05-5.87-2.82-5.86-5.67.01-3.21,2.75-6.01,5.88-6.01,2.99,0,5.84,2.74,5.87,5.63Z"/>
                <path d="m52.89,79.54c-.1,4-2.72,6.05-6.92,6.13-3.13.06-5.92-3.02-5.86-6.21.06-3.39,3.19-6.43,6.58-6.38,3.38.05,6.24,3.02,6.21,6.46Z"/>
                <path d="m64,36.59c-2.79,0-5.26-2.48-5.28-5.28-.02-2.7,2.61-5.13,5.48-5.07,2.78.06,5.2,2.47,5.21,5.18,0,2.76-2.52,5.18-5.41,5.17Z"/>
                <path d="m69.2,16.73c-2.9-.03-4.68-1.78-4.65-4.58.03-2.53,2.12-4.8,4.43-4.82,2.54-.02,4.92,2.31,4.91,4.81-.01,2.72-1.94,4.61-4.69,4.59Z"/>
                <path d="m42.17,1.76c2.66-.01,4.73,1.88,4.8,4.38.07,2.52-2.32,4.94-4.82,4.9-2.33-.04-4.73-2.37-4.78-4.63-.05-2.39,2.27-4.64,4.81-4.65Z"/>
            </g>
            <g style="fill: #102b88">
                <path d="m7.7,58.74C3.23,58.72-.04,55.26,0,50.59c.03-4.45,3.47-7.89,7.83-7.83,4.51.06,8.17,3.7,8.12,8.07-.04,4.45-3.67,7.92-8.26,7.9Z"/>
                <path d="m53.2,70.15c-4.28-.02-7.51-3.19-7.48-7.3.03-4.36,3.66-7.03,7.42-7.26,3.09-.18,7.79,3.69,7.51,7.31-.3,3.91-3.49,7.26-7.45,7.25Z"/>
                <path d="m45.98,24.41c3.49-.02,6.59,2.92,6.65,6.29.06,3.93-2.87,7-6.66,6.99-3.55,0-6.61-3.13-6.63-6.76-.02-3.46,3.08-6.5,6.64-6.52Z"/>
                <path d="m56.19.2c3.29.1,6.19,2.98,6.07,6.02-.12,3.13-3.09,5.9-6.26,5.85-3.28-.05-6.13-3.01-6.01-6.25.11-3.07,3.03-5.72,6.21-5.62Z"/>
                <path d="m62.83,40.85c3.43-.02,5.54,2.17,5.59,5.8.04,2.93-2.34,5.2-5.45,5.22-3.25.01-5.61-2.37-5.63-5.66-.02-3.09,2.3-5.34,5.49-5.36Z"/>
                <path d="m34.47,5.05c-.08,3.01-2.03,4.89-5.03,4.83-2.95-.05-5.04-2.23-4.97-5.17C24.53,2.15,26.83-.13,29.39,0c2.57.13,5.26,1.66,5.07,5.04Z"/>
            </g>
        </symbol>
        <symbol xmlns="http://www.w3.org/2000/svg" id="arrow" viewBox="0 0 20 16.8">
            <title>Arrow pointing right</title>
            <g style="enable-background:new 0 0 20 16.8;">
                <path d="M12,16.8l-1.4-1.4l6-6H0v-2h16.6l-6-6L12,0l7.7,7.7c0.4,0.4,0.4,1,0,1.4L12,16.8z"/>
            </g>
        </symbol>
    </defs>
</svg>
